<svg xmlns="http://www.w3.org/2000/svg" xmlns:xlink="http://www.w3.org/1999/xlink" width="1536" zoomAndPan="magnify" viewBox="0 0 1152 647.999998" height="864" preserveAspectRatio="xMidYMid meet" version="1.0"><defs><clipPath id="f4d08d5746"><path d="M 238 37 L 915.691406 37 L 915.691406 602.472656 L 238 602.472656 Z M 238 37 " clip-rule="nonzero"/></clipPath><clipPath id="91e3aa970a"><path d="M 785 129 L 892.789062 129 L 892.789062 152 L 785 152 Z M 785 129 " clip-rule="nonzero"/></clipPath></defs><g clip-path="url(#f4d08d5746)"><path fill="#65c5d0" d="M 915.226562 125.03125 C 914.382812 133.699219 909.539062 141.953125 902.140625 146.625 C 892.25 152.605469 879.925781 151.871094 868.921875 150.132812 C 850.128906 147.050781 832.402344 138.984375 813.363281 137.308594 C 804.964844 136.988281 795.023438 136.890625 788.496094 142.945312 C 788.359375 143.101562 788.226562 143.25 788.105469 143.410156 L 788.019531 143.410156 C 787.6875 143.960938 787.371094 144.507812 787.199219 145.121094 C 787.175781 145.242188 787.148438 145.367188 787.078125 145.316406 C 787.050781 145.683594 787.066406 146.039062 787.101562 146.40625 C 788.8125 152.714844 794.976562 156.371094 799.476562 160.636719 C 803.667969 164.367188 807.691406 168.890625 808.496094 174.636719 C 810.148438 188.878906 793.472656 194.625 782.160156 196.804688 C 764.382812 200.117188 746.054688 198.0625 728.304688 201.609375 C 702.066406 206.523438 678.382812 220.304688 656.921875 235.683594 C 645.578125 244.058594 634.816406 253.316406 625.464844 263.890625 C 620.453125 270.066406 609.054688 281.632812 612.96875 289.910156 C 612.90625 289.800781 612.835938 289.6875 612.773438 289.566406 C 612.773438 289.554688 612.761719 289.53125 612.636719 289.347656 C 613.617188 291.4375 615.78125 292.441406 617.773438 293.355469 C 620.476562 294.605469 623.410156 294.835938 626.320312 294.410156 C 635.757812 292.878906 644.660156 289.261719 653.585938 285.960938 C 666.863281 280.960938 680.421875 276.632812 694.324219 273.707031 C 718.851562 268.890625 754.871094 263.265625 778.800781 270.617188 C 789.03125 273.648438 798.054688 279.589844 806.417969 286.082031 C 810.417969 289.066406 813.902344 292.722656 816.359375 297.074219 C 824.832031 312.078125 823.15625 331.726562 814.035156 346.066406 C 807.886719 356.398438 797.015625 362.375 786.023438 366.375 C 773.554688 371.363281 760.09375 373.015625 746.800781 374.210938 C 724.964844 375.765625 702.675781 374.394531 681.449219 380.730469 C 669.785156 384.445312 654.894531 389.59375 649.980469 401.84375 L 650.089844 401.820312 C 653.453125 409.902344 690.621094 401.710938 700.855469 409.5 C 706.734375 412.789062 710.488281 420.5625 707.910156 427.042969 C 706.222656 430.894531 703.457031 434.148438 700.574219 437.179688 C 696.976562 440.824219 692.648438 443.707031 688.222656 446.238281 C 678.957031 451.558594 669.1875 455.921875 659.527344 460.445312 C 636.382812 471.550781 612.820312 481.992188 590.703125 495.0625 C 565.515625 509.804688 543.753906 529.320312 521.144531 547.585938 C 503.148438 561.976562 483.585938 574.558594 462.164062 583.203125 C 433.96875 594.464844 403.757812 601.8125 373.3125 602.242188 C 352.199219 602.15625 331.167969 598.292969 311.03125 591.957031 C 310.148438 592.960938 308.328125 593.167969 307.484375 591.382812 C 307.128906 591.066406 306.777344 590.746094 306.410156 590.453125 C 304.246094 589.730469 302.09375 588.972656 299.953125 588.191406 C 286.761719 583.179688 274.214844 576.601562 262.050781 569.472656 C 255.9375 565.816406 249.566406 561.792969 245.933594 555.460938 C 245.800781 555.191406 245.679688 554.921875 245.554688 554.667969 C 244.710938 553.957031 243.894531 553.222656 243.109375 552.453125 C 236.496094 545.851562 237.179688 534.003906 244.761719 528.414062 C 246.511719 527.191406 248.34375 526.140625 250.25 525.222656 C 250.605469 524.808594 251.15625 524.613281 251.78125 524.539062 C 269.984375 516.714844 294.648438 520.957031 313.21875 522.988281 C 314.125 523.097656 315.015625 523.207031 315.921875 523.304688 C 320.226562 522.582031 324.503906 521.726562 328.769531 520.75 C 342.515625 517.753906 355.671875 512.53125 368.203125 506.210938 C 382.421875 499.195312 395.652344 490.339844 407.671875 480.011719 C 423.90625 466.132812 438.628906 450.238281 449.546875 431.789062 C 472.972656 393.042969 481.886719 348.207031 495.8125 305.65625 C 508.320312 268.171875 526.539062 232.738281 548.410156 199.871094 C 558.339844 185.210938 568.511719 170.648438 580.175781 157.3125 C 596.816406 138.273438 615.402344 120.996094 635.109375 105.1875 C 663.964844 81.835938 695.976562 61.941406 730.992188 49.3125 C 767.894531 35.898438 809.464844 31.949219 846.925781 45.386719 C 863.640625 51.121094 880.464844 58.410156 892.640625 71.636719 C 904.5 84.292969 915.492188 102.695312 915.507812 120.65625 C 915.507812 122.109375 915.433594 123.578125 915.285156 125.019531 Z M 915.226562 125.03125 " fill-opacity="1" fill-rule="nonzero"/></g><path fill="#65c5d0" d="M 654.722656 562.332031 C 652.191406 574.300781 641.003906 579.707031 630.269531 582.859375 C 619.535156 585.769531 608.25 584.976562 597.246094 585 C 586.425781 584.925781 575.542969 585.5625 564.867188 587.359375 C 559.585938 588.300781 554.539062 590.097656 549.4375 591.699219 C 546.480469 592.640625 543.277344 593.582031 540.195312 592.679688 C 536.28125 591.796875 533.484375 587.847656 534.4375 583.851562 C 535.328125 580.171875 538.277344 577.382812 540.941406 574.863281 C 551.027344 560.902344 566.042969 551.460938 581.363281 544.113281 C 592.683594 538.527344 605.019531 534.871094 617.75 535.203125 C 621.84375 535.175781 625.929688 535.679688 629.976562 536.277344 C 635.464844 537.183594 641.140625 538.367188 645.699219 541.730469 C 650.980469 545.726562 655.125 552.148438 655.125 558.859375 C 655.125 560.023438 655.003906 561.183594 654.746094 562.34375 Z M 654.722656 562.332031 " fill-opacity="1" fill-rule="nonzero"/><path fill="#2eb1ff" d="M 736.078125 200.359375 C 693.175781 206.546875 654.773438 232.921875 625.464844 263.878906 C 620.453125 270.054688 609.054688 281.621094 612.96875 289.898438 C 612.90625 289.785156 612.847656 289.675781 612.773438 289.554688 C 612.773438 289.53125 612.761719 289.519531 612.636719 289.335938 C 613.617188 291.425781 615.78125 292.429688 617.773438 293.34375 C 621.039062 294.875 624.695312 294.824219 628.15625 294.078125 C 614.03125 303.210938 599.703125 287.058594 600.707031 272.949219 C 600.753906 268.757812 601.660156 264.527344 603.738281 260.847656 C 607.222656 254.414062 611.390625 248.351562 616.125 242.761719 C 615.976562 242.945312 615.816406 243.128906 615.671875 243.300781 C 622.8125 234.300781 631.039062 226.136719 640.601562 219.691406 C 655.371094 209.726562 671.976562 202.792969 688.75 197 C 692.6875 195.703125 696.78125 195.3125 700.902344 195.359375 C 710.722656 195.285156 720.5625 195.117188 730.355469 195.238281 C 733.535156 193.476562 737.546875 196.988281 736.078125 200.347656 Z M 736.078125 200.359375 " fill-opacity="1" fill-rule="nonzero"/><path fill="#2eb1ff" d="M 728.964844 375.054688 C 712.957031 375.605469 696.917969 376.121094 681.449219 380.742188 C 669.785156 384.457031 654.894531 389.605469 649.980469 401.855469 L 650.089844 401.832031 C 651.152344 404.375 655.542969 405.304688 661.398438 405.636719 C 650.089844 407.738281 640.96875 399.816406 640.136719 388.601562 C 639.660156 379.703125 646.273438 373.320312 653.867188 369.894531 C 659.101562 367.269531 664.589844 365.003906 670.398438 364.050781 C 675.582031 363.171875 680.863281 363.488281 686.097656 363.183594 C 688.738281 363.0625 691.402344 362.902344 694.042969 363.074219 C 703.261719 363.683594 712.175781 366.179688 720.84375 369.273438 C 722.152344 369.613281 723.449219 370.09375 724.820312 369.996094 C 727.460938 369.882812 729.660156 372.476562 728.964844 375.066406 Z M 728.964844 375.054688 " fill-opacity="1" fill-rule="nonzero"/><path fill="#2eb1ff" d="M 659.503906 460.460938 C 636.359375 471.5625 612.796875 482.003906 590.679688 495.074219 C 565.492188 509.820312 543.730469 529.332031 521.121094 547.597656 C 463.71875 594.453125 382.472656 616.082031 310.992188 591.96875 C 310.113281 592.972656 308.292969 593.179688 307.449219 591.394531 C 305.429688 589.550781 302.375 589.351562 299.929688 588.214844 C 286.734375 583.203125 274.191406 576.625 262.027344 569.496094 C 257.476562 566.78125 252.792969 563.859375 249.199219 559.949219 C 253.371094 562.394531 256.695312 566.097656 261.097656 568.175781 C 265.402344 569.960938 269.667969 571.882812 274.105469 573.3125 C 278.53125 574.496094 283.019531 575.425781 287.433594 576.710938 C 291.664062 577.945312 295.941406 579.007812 300.269531 579.878906 C 304.660156 580.441406 309.074219 580.792969 313.464844 581.371094 C 320.492188 582.214844 327.414062 583.972656 334.519531 584.144531 C 343.96875 584.523438 353.433594 584.304688 362.871094 584.925781 C 368.128906 584.925781 373.335938 584.402344 378.523438 583.546875 C 381.835938 583.070312 385.171875 582.703125 388.5 582.359375 C 396.386719 581.40625 404.089844 579.414062 411.914062 578.09375 C 420.410156 575.597656 428.882812 572.921875 437.296875 570.121094 C 443.054688 567.6875 448.679688 564.9375 454.207031 562.015625 C 465.917969 554.898438 477.191406 547.050781 488.367188 539.089844 C 504.324219 526.839844 518.871094 512.667969 536.0625 502.078125 C 553.386719 492.222656 570.480469 481.855469 588.515625 473.359375 C 593.722656 470.988281 599.042969 468.957031 604.472656 467.160156 C 616.085938 463.003906 627.605469 458.34375 639.683594 455.703125 C 642.042969 455.191406 644.574219 455.226562 646.996094 455.042969 C 654.039062 454.222656 660.957031 452.621094 668.027344 452.011719 C 668.941406 451.863281 669.894531 451.863281 670.765625 451.523438 C 672.378906 450.75 674.359375 451.546875 675.054688 453.136719 C 669.910156 455.640625 664.699219 458.027344 659.503906 460.460938 Z M 659.503906 460.460938 " fill-opacity="1" fill-rule="nonzero"/><path fill="#2eb1ff" d="M 630.269531 582.859375 C 619.535156 585.769531 608.25 584.976562 597.246094 585 C 586.425781 584.925781 575.542969 585.5625 564.867188 587.359375 C 559.585938 588.300781 554.539062 590.097656 549.4375 591.699219 C 546.480469 592.640625 543.277344 593.582031 540.195312 592.679688 C 536.429688 591.824219 533.691406 588.128906 534.351562 584.304688 C 544.425781 578.691406 555.085938 573.910156 566.554688 572.078125 C 572.363281 570.671875 578.304688 570.414062 584.25 570.707031 C 587.21875 570.632812 590.179688 570.292969 593.160156 570.402344 C 597.222656 570.488281 601.21875 571.464844 605.265625 571.648438 C 611.132812 571.367188 616.820312 573.03125 622.664062 573.128906 C 626.550781 573.191406 630.453125 572.785156 634.339844 573.019531 C 636.261719 573.25 638.191406 573.25 640.136719 573.324219 C 641.40625 573.542969 642.617188 573.53125 643.804688 572.957031 C 645.089844 572.332031 646.359375 571.6875 647.507812 570.828125 C 648.363281 569.789062 650.027344 569.71875 650.90625 570.769531 C 646.128906 577.089844 638.082031 580.574219 630.28125 582.859375 Z M 630.269531 582.859375 " fill-opacity="1" fill-rule="nonzero"/><g clip-path="url(#91e3aa970a)"><path fill="#2eb1ff" d="M 868.933594 150.121094 C 850.140625 147.039062 832.414062 138.972656 813.375 137.296875 C 804.976562 136.976562 795.035156 136.878906 788.507812 142.933594 C 788.371094 143.089844 788.238281 143.238281 788.117188 143.398438 L 788.03125 143.421875 C 787.699219 143.960938 787.382812 144.507812 787.210938 145.109375 C 787.1875 145.230469 787.164062 145.351562 787.089844 145.316406 C 787.066406 145.683594 787.078125 146.039062 787.113281 146.40625 C 787.445312 147.613281 787.933594 148.714844 788.53125 149.753906 C 787.003906 148.140625 785.953125 146.074219 785.757812 143.8125 C 785.644531 142.527344 785.71875 141.390625 785.941406 140.167969 C 786.257812 138.761719 786.648438 137.539062 787.394531 136.195312 C 788.421875 134.3125 790.121094 132.941406 791.917969 131.855469 C 793.335938 131 795.035156 130.496094 796.664062 130.144531 C 799.351562 129.570312 802.066406 129.203125 804.816406 129.078125 C 806.738281 128.992188 808.65625 129.105469 810.578125 129.175781 C 813.15625 129.273438 815.722656 129.347656 818.304688 129.59375 C 820.578125 129.800781 822.851562 130.117188 825.125 130.375 C 827.644531 130.667969 830.128906 130.972656 832.609375 131.5625 C 835.066406 132.136719 837.488281 132.859375 839.910156 133.542969 C 841.875 134.105469 843.882812 134.53125 845.839844 135.105469 C 847.808594 135.683594 849.726562 136.441406 851.730469 136.929688 C 854.066406 137.503906 856.367188 138.113281 858.640625 138.921875 C 860.570312 139.605469 862.453125 140.449219 864.386719 141.160156 C 865.460938 141.527344 866.539062 141.855469 867.625 142.175781 C 869.203125 142.625 870.828125 143.066406 872.308594 143.777344 C 875 145.085938 877.773438 146.234375 880.390625 147.652344 C 880.609375 147.738281 880.820312 147.835938 881.039062 147.921875 C 881.566406 148.03125 882.101562 148.140625 882.628906 148.25 C 883.703125 148.359375 884.78125 148.484375 885.867188 148.59375 C 886.859375 148.617188 887.835938 148.617188 888.816406 148.59375 C 889.167969 148.554688 889.523438 148.507812 889.878906 148.445312 C 889.902344 148.445312 889.929688 148.445312 889.941406 148.433594 C 891.066406 148.175781 892.226562 148.8125 892.519531 149.949219 C 892.554688 150.097656 892.582031 150.242188 892.582031 150.378906 C 884.914062 152.066406 876.613281 151.34375 868.960938 150.132812 Z M 868.933594 150.121094 " fill-opacity="1" fill-rule="nonzero"/></g><path fill="#2eb1ff" d="M 785.976562 139.914062 C 786 139.753906 786.039062 139.59375 786.074219 139.433594 C 786.039062 139.59375 786.011719 139.753906 785.976562 139.914062 Z M 785.976562 139.914062 " fill-opacity="1" fill-rule="nonzero"/><path fill="#2eb1ff" d="M 785.925781 140.15625 C 785.890625 140.304688 785.867188 140.4375 785.828125 140.585938 C 785.878906 140.351562 785.925781 140.121094 785.976562 139.898438 C 785.964844 139.984375 785.941406 140.070312 785.925781 140.15625 Z M 785.925781 140.15625 " fill-opacity="1" fill-rule="nonzero"/><path fill="#2eb1ff" d="M 785.78125 140.828125 C 785.792969 140.742188 785.816406 140.671875 785.828125 140.597656 C 785.816406 140.671875 785.792969 140.757812 785.78125 140.828125 Z M 785.78125 140.828125 " fill-opacity="1" fill-rule="nonzero"/><path fill="#2eb1ff" d="M 553.765625 350.640625 C 550.636719 352.851562 547.554688 355.140625 544.535156 357.5 C 543.15625 358.671875 541.796875 359.871094 540.464844 361.105469 C 539.191406 362.292969 537.996094 363.5625 536.796875 364.824219 C 532.164062 369.847656 527.859375 375.140625 523.703125 380.570312 C 520.753906 384.617188 517.90625 388.726562 515.3125 393.015625 C 512.671875 397.382812 510.117188 401.796875 507.648438 406.269531 C 507.671875 406.222656 507.695312 406.171875 507.722656 406.125 C 507.292969 406.90625 506.867188 407.703125 506.425781 408.484375 C 506.488281 408.375 506.546875 408.265625 506.609375 408.164062 C 504.847656 411.355469 503.28125 414.632812 501.863281 417.984375 C 501.144531 419.683594 500.484375 421.40625 499.75 423.105469 C 499.050781 424.734375 498.308594 426.347656 497.5625 427.949219 C 494.382812 434.699219 491.054688 441.363281 487.878906 448.121094 C 487.035156 449.933594 486.164062 451.71875 485.25 453.492188 C 484.308594 455.289062 483.242188 457.011719 482.167969 458.734375 C 480.296875 461.730469 478.253906 464.652344 476.1875 467.515625 C 473.890625 470.691406 471.519531 473.8125 469.035156 476.855469 C 466.761719 479.632812 464.339844 482.285156 461.933594 484.949219 C 458.886719 488.335938 455.832031 491.722656 452.6875 495.023438 C 452.761719 494.949219 452.824219 494.878906 452.898438 494.804688 C 450.28125 497.566406 447.613281 500.292969 444.875 502.960938 C 443.496094 504.304688 442.003906 505.5625 440.535156 506.835938 C 439.042969 508.117188 437.550781 509.425781 436 510.625 C 434.605469 511.703125 433.222656 512.8125 431.792969 513.828125 C 430.117188 515.015625 428.445312 516.175781 426.730469 517.3125 C 425.058594 518.425781 423.34375 519.464844 421.644531 520.527344 C 420.910156 520.992188 420.167969 521.410156 419.421875 521.835938 C 418.550781 522.328125 417.695312 522.863281 416.804688 523.316406 C 414.46875 524.503906 412.121094 525.640625 409.738281 526.726562 C 407.265625 527.863281 404.773438 528.917969 402.265625 529.96875 C 401.203125 530.410156 400.113281 530.789062 399.027344 531.191406 C 397.71875 531.679688 396.371094 532.046875 395.039062 532.4375 C 393.816406 532.792969 392.59375 533.085938 391.347656 533.378906 C 390.320312 533.625 389.316406 533.917969 388.304688 534.1875 C 384.988281 535.25 381.714844 536.398438 378.425781 537.5625 C 375.222656 538.699219 371.957031 539.699219 368.667969 540.59375 C 366.882812 541.082031 365.097656 541.558594 363.300781 542.011719 C 361.441406 542.476562 359.570312 542.890625 357.699219 543.296875 C 354.203125 544.039062 350.621094 544.421875 347.050781 544.519531 C 343.261719 544.617188 339.46875 544.6875 335.679688 544.675781 C 334.664062 544.675781 333.636719 544.578125 332.621094 544.519531 C 331.753906 544.46875 330.886719 544.382812 330.019531 544.296875 C 328.269531 544.125 326.496094 543.859375 324.738281 543.761719 C 323.671875 543.699219 322.609375 543.648438 321.558594 543.589844 C 320.542969 543.527344 319.515625 543.589844 318.511719 543.589844 C 316.644531 543.589844 314.773438 543.675781 312.902344 543.675781 C 310.492188 543.675781 308.121094 543.527344 305.738281 543.136719 C 303.9375 542.855469 302.191406 542.316406 300.464844 541.777344 C 298.65625 541.203125 296.882812 540.582031 295.136719 539.871094 C 293.472656 539.199219 291.835938 538.429688 290.417969 537.328125 C 289.816406 536.863281 289.757812 535.933594 290.234375 535.359375 C 290.746094 534.75 291.589844 534.722656 292.203125 535.175781 C 292.25 535.214844 292.285156 535.238281 292.335938 535.273438 C 292.324219 535.273438 292.3125 535.25 292.300781 535.238281 C 292.53125 535.398438 292.765625 535.554688 293.007812 535.691406 C 293.4375 535.910156 293.875 536.117188 294.316406 536.324219 C 295.394531 536.730469 296.457031 537.085938 297.558594 537.414062 C 300.027344 538 302.496094 538.550781 305.015625 538.855469 C 306.433594 538.980469 307.851562 539.027344 309.269531 539.015625 C 311.898438 538.917969 314.503906 538.574219 317.121094 538.246094 C 318.585938 538.0625 320.066406 537.828125 321.546875 537.730469 C 323.378906 537.597656 325.1875 537.488281 327.023438 537.449219 C 328.625 537.414062 330.226562 537.402344 331.816406 537.378906 C 333.222656 537.316406 334.640625 537.28125 336.046875 537.144531 C 337.722656 536.984375 339.382812 536.828125 341.046875 536.621094 C 344.054688 536.253906 347.0625 535.863281 350.058594 535.433594 C 351.511719 535.128906 352.957031 534.808594 354.410156 534.503906 C 355.132812 534.34375 355.828125 534.101562 356.539062 533.90625 C 357.257812 533.699219 357.992188 533.5 358.714844 533.292969 C 361.476562 532.414062 364.242188 531.546875 366.980469 530.566406 C 370.183594 529.417969 373.363281 528.21875 376.527344 526.960938 C 379.523438 525.761719 382.542969 524.515625 385.648438 523.609375 C 387.203125 523.15625 388.753906 522.707031 390.320312 522.3125 C 391.847656 521.921875 393.363281 521.445312 394.882812 521.007812 C 394.648438 521.078125 394.417969 521.140625 394.183594 521.214844 C 395.957031 520.554688 397.71875 519.90625 399.453125 519.171875 C 401.226562 518.425781 402.976562 517.65625 404.734375 516.886719 C 406.570312 516.03125 408.402344 515.175781 410.214844 514.257812 C 412.035156 513.339844 413.796875 512.3125 415.570312 511.308594 C 417.953125 509.820312 420.300781 508.316406 422.636719 506.761719 C 425.007812 505.183594 427.246094 503.425781 429.496094 501.6875 C 431.707031 499.855469 433.898438 498.019531 436.023438 496.074219 C 438.238281 494.058594 440.375 491.96875 442.441406 489.804688 C 443.226562 488.972656 444.007812 488.140625 444.789062 487.308594 C 449.777344 481.894531 454.730469 476.441406 459.609375 470.925781 C 464.523438 465.386719 469.207031 459.617188 473.707031 453.734375 C 474.292969 452.976562 474.84375 452.195312 475.417969 451.410156 C 475.417969 451.425781 475.394531 451.4375 475.394531 451.449219 C 476.847656 449.441406 478.265625 447.375 479.550781 445.25 C 480.933594 442.964844 482.253906 440.652344 483.648438 438.378906 C 485.066406 436.066406 486.519531 433.78125 487.878906 431.433594 C 489.1875 429.195312 490.457031 426.921875 491.714844 424.648438 C 492.976562 422.289062 494.175781 419.914062 495.300781 417.496094 C 496.460938 414.988281 497.621094 412.480469 498.941406 410.046875 C 498.917969 410.097656 498.882812 410.148438 498.855469 410.195312 C 499.261719 409.460938 499.664062 408.726562 500.066406 407.996094 C 500.066406 407.996094 500.066406 408.007812 500.054688 408.019531 C 501.730469 405 503.539062 402.050781 505.3125 399.09375 C 507.171875 395.988281 509.066406 392.917969 510.925781 389.8125 C 514.667969 383.542969 518.847656 377.574219 523.261719 371.753906 C 527.089844 366.707031 530.84375 361.582031 534.988281 356.777344 C 539.121094 351.984375 544.15625 347.984375 549.230469 344.246094 C 550.941406 342.984375 553.449219 343.4375 554.671875 345.148438 C 555.148438 345.820312 555.382812 346.617188 555.382812 347.398438 C 555.382812 348.621094 554.820312 349.84375 553.765625 350.589844 Z M 553.765625 350.640625 " fill-opacity="1" fill-rule="nonzero"/><path fill="#2eb1ff" d="M 292.226562 535.226562 C 292.226562 535.226562 292.300781 535.273438 292.324219 535.300781 C 292.285156 535.273438 292.25 535.25 292.226562 535.226562 Z M 292.226562 535.226562 " fill-opacity="1" fill-rule="nonzero"/><path fill="#2eb1ff" d="M 691.257812 326.6875 C 684.886719 329.121094 678.589844 331.761719 672.28125 334.316406 C 665.789062 336.882812 659.0625 338.78125 652.59375 341.40625 C 642.65625 346.761719 633.105469 353 624.121094 359.820312 C 618.335938 364.796875 612.835938 370.105469 607.136719 375.167969 C 596.953125 383.96875 586.925781 393.066406 579.199219 404.179688 C 568.230469 420.5625 556.933594 436.726562 545.746094 452.964844 C 537.066406 465.9375 526.0625 477.125 515.15625 488.238281 C 507.792969 495.453125 500.203125 502.457031 491.984375 508.679688 C 483.707031 514.683594 475.527344 520.859375 466.859375 526.3125 C 460.429688 529.808594 454.328125 533.878906 447.808594 537.195312 C 444.019531 538.871094 440.023438 540.019531 436.144531 541.496094 C 434.214844 542.15625 432.234375 542.523438 430.214844 542.84375 C 427.953125 542.964844 427.402344 539.628906 429.886719 539.234375 C 433.101562 538.855469 436.074219 537.597656 438.984375 536.226562 C 438.898438 536.265625 438.824219 536.300781 438.738281 536.339844 C 453.519531 529.210938 464.757812 516.8125 476.886719 506.078125 C 494.664062 490.792969 509.738281 472.734375 524.9375 454.96875 C 536.050781 440.066406 546.199219 424.441406 557.644531 409.753906 C 563.363281 401.613281 569.097656 393.480469 575.726562 386.035156 C 585.652344 374.910156 597.453125 365.664062 608.371094 355.554688 C 615.925781 348.414062 624.65625 342.730469 633.679688 337.617188 C 638.007812 335.039062 642.335938 332.398438 647.042969 330.5625 C 650.417969 329.242188 653.976562 328.4375 657.5 327.628906 C 664.554688 326.0625 671.511719 324.121094 678.550781 322.480469 C 682.121094 321.625 685.707031 320.917969 689.3125 320.257812 C 690.949219 319.960938 692.613281 320.734375 693.226562 322.347656 C 693.859375 324.035156 692.992188 326.027344 691.257812 326.6875 Z M 691.257812 326.6875 " fill-opacity="1" fill-rule="nonzero"/><path fill="#2eb1ff" d="M 860.535156 86.554688 C 859.628906 87.667969 858.714844 88.707031 857.539062 89.539062 C 856.878906 90.015625 856.230469 90.441406 855.523438 90.835938 C 854.140625 91.605469 852.683594 92.179688 851.195312 92.703125 C 848.75 93.546875 846.144531 94.050781 843.613281 94.539062 C 838.613281 95.53125 833.488281 95.824219 828.425781 96.25 C 824.871094 96.59375 821.3125 96.949219 817.753906 97.277344 C 814.292969 97.609375 810.820312 97.9375 807.359375 98.183594 C 804.097656 98.414062 800.832031 98.621094 797.566406 98.902344 C 795.941406 99.085938 794.328125 99.320312 792.726562 99.613281 C 791.332031 99.980469 789.972656 100.40625 788.628906 100.871094 C 785.742188 101.984375 782.945312 103.230469 780.167969 104.589844 C 778.042969 105.761719 776 107.011719 774.007812 108.390625 C 772.574219 109.441406 771.207031 110.53125 769.847656 111.679688 C 769.421875 112.097656 769.003906 112.535156 768.601562 112.976562 C 768.199219 113.492188 767.820312 114.015625 767.441406 114.554688 C 766.976562 115.289062 766.546875 116.019531 766.144531 116.792969 C 766.058594 117 765.972656 117.207031 765.898438 117.414062 C 765.875 117.523438 765.851562 117.621094 765.828125 117.734375 C 765.777344 118.101562 765.753906 118.453125 765.730469 118.820312 C 765.730469 119.226562 765.730469 119.628906 765.753906 120.03125 C 765.828125 120.472656 765.898438 120.910156 765.984375 121.351562 C 766.476562 123.371094 767.023438 125.339844 766.902344 127.464844 C 766.707031 131.011719 764.910156 134.164062 762.453125 136.660156 C 759.089844 140.070312 755.289062 142.992188 750.875 144.9375 C 747.621094 146.367188 744.269531 147.542969 740.835938 148.445312 C 737.523438 149.328125 734.183594 150.074219 730.847656 150.820312 C 726.910156 151.796875 723.046875 152.933594 719.230469 154.277344 C 714.792969 156.027344 710.414062 157.921875 706.015625 159.757812 C 701.429688 161.664062 696.917969 163.753906 692.332031 165.625 C 682.867188 169.5 673.246094 173.121094 663.976562 177.472656 C 659.796875 179.441406 655.699219 181.53125 651.617188 183.683594 C 646.996094 186.238281 642.386719 188.820312 637.8125 191.460938 C 633.582031 193.894531 629.546875 196.605469 625.527344 199.371094 C 621.757812 202.183594 618.03125 205.007812 614.449219 208.0625 C 610.609375 211.328125 606.855469 214.667969 603.113281 218.054688 C 601.21875 219.863281 599.335938 221.683594 597.515625 223.566406 C 595.582031 225.558594 593.75 227.625 591.914062 229.691406 C 590.289062 231.6875 588.675781 233.667969 587.109375 235.707031 C 585.226562 238.164062 583.417969 240.660156 581.570312 243.15625 C 579.773438 245.574219 576.265625 246.136719 573.820312 244.351562 C 571.445312 242.617188 570.75 238.972656 572.621094 236.613281 C 579.148438 228.359375 586.144531 220.472656 592.941406 212.453125 C 599.582031 204.605469 606.28125 196.816406 613.777344 189.773438 C 617.457031 186.3125 621.246094 182.9375 625.195312 179.785156 C 629.242188 176.542969 633.472656 173.511719 637.851562 170.722656 C 646.675781 165.074219 655.699219 159.671875 665.398438 155.625 C 670.628906 153.433594 675.925781 151.453125 681.265625 149.570312 C 686.035156 147.894531 690.816406 146.222656 695.632812 144.691406 C 700.546875 143.140625 705.523438 141.585938 710.574219 140.460938 C 715.808594 139.300781 721.089844 138.554688 726.433594 138.152344 C 728.851562 137.96875 731.285156 137.929688 733.707031 137.796875 C 735.882812 137.675781 738.046875 137.492188 740.210938 137.296875 C 741.238281 137.160156 742.230469 136.988281 743.246094 136.792969 C 745.054688 136.328125 746.839844 135.839844 748.597656 135.230469 C 749.148438 135.007812 749.675781 134.765625 750.199219 134.507812 C 750.652344 134.238281 751.09375 133.96875 751.535156 133.6875 C 752.671875 132.84375 753.757812 131.988281 754.824219 131.046875 C 755.066406 130.792969 755.300781 130.535156 755.542969 130.277344 C 755.738281 130.019531 755.921875 129.777344 756.105469 129.507812 C 756.179688 129.398438 756.242188 129.273438 756.300781 129.152344 C 756.414062 128.910156 756.496094 128.652344 756.582031 128.394531 C 756.582031 128.417969 756.582031 128.445312 756.597656 128.46875 C 756.597656 128.445312 756.597656 128.417969 756.582031 128.394531 C 756.609375 128.296875 756.632812 128.210938 756.65625 128.113281 C 756.632812 128.199219 756.609375 128.296875 756.570312 128.382812 C 756.570312 128.347656 756.558594 128.308594 756.546875 128.273438 C 756.546875 128.308594 756.558594 128.332031 756.570312 128.371094 C 756.570312 128.40625 756.546875 128.429688 756.535156 128.46875 C 756.535156 128.46875 756.535156 128.46875 756.535156 128.480469 C 756.511719 128.566406 756.484375 128.640625 756.460938 128.726562 C 756.460938 128.652344 756.484375 128.589844 756.496094 128.515625 C 756.496094 128.46875 756.496094 128.429688 756.496094 128.382812 C 756.496094 128.308594 756.496094 128.246094 756.496094 128.175781 C 756.484375 128.050781 756.460938 127.941406 756.449219 127.820312 C 756.398438 127.613281 756.328125 127.417969 756.265625 127.222656 C 755.886719 126.242188 755.496094 125.277344 755.175781 124.273438 C 754.542969 122.304688 754.347656 120.152344 754.601562 118.101562 C 754.882812 115.886719 755.519531 113.917969 756.59375 111.9375 C 757.476562 110.300781 758.675781 108.832031 759.882812 107.4375 C 761.988281 104.992188 764.554688 103.011719 767.21875 101.203125 C 769.261719 99.820312 771.351562 98.488281 773.46875 97.230469 C 777.613281 94.757812 782.003906 92.703125 786.464844 90.882812 C 791.257812 88.925781 796.417969 88.488281 801.492188 87.753906 C 808.117188 86.800781 814.671875 85.46875 821.289062 84.441406 C 824.5625 83.925781 827.839844 83.4375 831.128906 83.007812 C 834.417969 82.570312 837.683594 82.105469 840.921875 81.40625 C 842.976562 80.917969 845.042969 80.417969 847.035156 79.707031 C 847.660156 79.464844 848.257812 79.207031 848.859375 78.925781 C 849.078125 78.804688 849.285156 78.667969 849.492188 78.535156 C 849.703125 78.3125 849.898438 78.09375 850.09375 77.863281 C 852.320312 75.320312 856.414062 75.121094 859.054688 77.066406 C 860.816406 78.363281 861.855469 80.5625 861.855469 82.742188 C 861.855469 84.121094 861.441406 85.480469 860.523438 86.589844 Z M 860.535156 86.554688 " fill-opacity="1" fill-rule="nonzero"/></svg>