<svg xmlns="http://www.w3.org/2000/svg" xmlns:xlink="http://www.w3.org/1999/xlink" width="1536" zoomAndPan="magnify" viewBox="0 0 1152 431.999984" height="576" preserveAspectRatio="xMidYMid meet" version="1.0"><defs><g/></defs><path stroke-linecap="butt" transform="matrix(0.75, 0, 0, 0.75, 2.135177, 173.998858)" fill="none" stroke-linejoin="miter" d="M 306.413538 97.00153 L 270.413535 97.00153 C 268.986451 97.00153 267.949993 96.673405 267.298951 96.027571 C 266.647909 95.37653 266.324993 94.340071 266.324993 92.912988 L 266.324993 79.569237 C 266.324993 78.12132 266.647909 77.084862 267.298951 76.454653 C 267.949993 75.80882 268.986451 75.480695 270.413535 75.480695 L 301.048954 75.480695 C 302.033329 75.480695 302.772912 75.157778 303.272912 74.511945 C 303.772912 73.860903 304.022912 73.084861 304.022912 72.173403 C 304.022912 70.876528 303.772912 69.933819 303.272912 69.340069 C 302.772912 68.725486 302.033329 68.381736 301.048954 68.308819 L 283.981244 65.918194 C 278.658327 65.157777 274.387493 63.418194 271.163535 60.694235 C 267.939576 57.949443 266.324993 53.392151 266.324993 47.017151 L 266.324993 35.058817 C 266.324993 28.6109 268.408326 23.662982 272.580202 20.215066 C 276.752077 16.751524 282.522911 15.017148 289.90312 15.017148 L 321.788539 15.017148 C 323.215622 15.017148 324.252081 15.340065 324.903122 15.991107 C 325.548956 16.63694 325.871872 17.678607 325.871872 19.10569 L 325.871872 32.668191 C 325.871872 34.116108 325.548956 35.162983 324.903122 35.814025 C 324.252081 36.444233 323.215622 36.756733 321.788539 36.756733 L 295.236453 36.756733 C 294.257287 36.756733 293.49687 37.07965 292.960411 37.730692 C 292.439578 38.376525 292.179161 39.194234 292.179161 40.178609 C 292.179161 41.157775 292.439578 41.991109 292.960411 42.678609 C 293.49687 43.366109 294.257287 43.746317 295.236453 43.819234 L 312.226038 46.095276 C 317.522913 46.855693 321.804164 48.610901 325.069789 51.350485 C 328.345831 54.074443 329.986456 58.626527 329.986456 65.001527 L 329.986456 76.954653 C 329.986456 83.407779 327.877081 88.360904 323.647914 91.829654 C 319.444789 95.277571 313.699996 97.00153 306.413538 97.00153 Z M 386.783336 97.00153 L 368.351042 97.00153 C 366.908334 97.00153 365.861459 96.673405 365.210417 96.027571 C 364.559375 95.37653 364.236459 94.340071 364.236459 92.912988 L 364.236459 36.980692 L 347.502082 36.980692 C 346.054166 36.980692 345.007291 36.662983 344.361457 36.032775 C 343.731249 35.386942 343.41354 34.340067 343.41354 32.89215 L 343.41354 19.10569 C 343.41354 17.678607 343.731249 16.63694 344.361457 15.991107 C 345.007291 15.340065 346.054166 15.017148 347.502082 15.017148 L 407.632296 15.017148 C 409.080212 15.017148 410.116671 15.340065 410.746879 15.991107 C 411.397921 16.63694 411.720838 17.678607 411.720838 19.10569 L 411.720838 32.89215 C 411.720838 34.340067 411.397921 35.386942 410.746879 36.032775 C 410.116671 36.662983 409.080212 36.980692 407.632296 36.980692 L 390.897919 36.980692 L 390.897919 92.912988 C 390.897919 94.340071 390.575003 95.37653 389.923961 96.027571 C 389.278127 96.673405 388.231252 97.00153 386.783336 97.00153 Z M 458.189591 38.9234 L 452.825007 56.246318 L 470.700009 56.246318 L 465.361467 38.9234 C 465.048967 38.241109 464.715633 37.746317 464.361467 37.449442 C 464.028133 37.136942 463.637508 36.980692 463.1948 36.980692 L 460.356258 36.980692 C 459.892716 36.980692 459.486466 37.136942 459.1323 37.449442 C 458.798966 37.746317 458.486466 38.241109 458.189591 38.9234 Z M 451.684382 92.912988 C 451.684382 94.340071 451.361466 95.37653 450.710424 96.027571 C 450.080216 96.673405 449.043757 97.00153 447.59584 97.00153 L 430.861464 97.00153 C 429.418756 97.00153 428.366672 96.673405 427.720839 96.027571 C 427.069797 95.37653 426.74688 94.340071 426.74688 92.912988 L 426.74688 62.834861 C 426.74688 60.55361 427.106255 57.939027 427.830214 54.996318 C 428.554172 52.027568 429.673964 48.574443 431.194797 44.626526 L 441.090631 18.772357 C 441.554173 17.470274 442.262507 16.527565 443.205215 15.933815 C 444.147923 15.32444 445.382298 15.017148 446.903132 15.017148 L 477.538551 15.017148 C 478.986468 15.017148 480.179176 15.32444 481.127093 15.933815 C 482.069801 16.527565 482.772926 17.470274 483.236468 18.772357 L 493.132302 44.626526 C 494.653136 48.574443 495.772927 52.027568 496.496886 54.996318 C 497.220844 57.939027 497.580219 60.55361 497.580219 62.834861 L 497.580219 92.912988 C 497.580219 94.340071 497.257303 95.37653 496.611469 96.027571 C 495.960427 96.673405 494.913552 97.00153 493.465636 97.00153 L 476.288551 97.00153 C 474.767717 97.00153 473.647926 96.673405 472.923967 96.027571 C 472.200009 95.37653 471.840634 94.340071 471.840634 92.912988 L 471.840634 76.954653 L 451.684382 76.954653 Z M 555.981266 97.00153 L 537.548972 97.00153 C 536.101056 97.00153 535.054181 96.673405 534.408347 96.027571 C 533.757305 95.37653 533.434389 94.340071 533.434389 92.912988 L 533.434389 36.980692 L 516.700012 36.980692 C 515.252096 36.980692 514.205221 36.662983 513.559387 36.032775 C 512.929179 35.386942 512.61147 34.340067 512.61147 32.89215 L 512.61147 19.10569 C 512.61147 17.678607 512.929179 16.63694 513.559387 15.991107 C 514.205221 15.340065 515.252096 15.017148 516.700012 15.017148 L 576.830226 15.017148 C 578.278142 15.017148 579.314601 15.340065 579.944809 15.991107 C 580.590642 16.63694 580.918767 17.678607 580.918767 19.10569 L 580.918767 32.89215 C 580.918767 34.340067 580.590642 35.386942 579.944809 36.032775 C 579.314601 36.662983 578.278142 36.980692 576.830226 36.980692 L 560.095849 36.980692 L 560.095849 92.912988 C 560.095849 94.340071 559.767724 95.37653 559.121891 96.027571 C 558.470849 96.673405 557.423974 97.00153 555.981266 97.00153 Z M 667.444816 75.480695 C 667.444816 78.96507 666.934399 82.136945 665.918774 84.991112 C 664.897941 87.824446 663.075024 90.251529 660.439607 92.272363 C 657.825024 94.293196 654.24169 95.871321 649.684398 97.00153 C 645.142731 98.131738 639.340647 98.694238 632.278147 98.694238 C 625.215646 98.694238 619.408354 98.131738 614.845853 97.00153 C 610.288561 95.871321 606.705228 94.293196 604.090644 92.272363 C 601.476061 90.251529 599.653144 87.824446 598.611477 84.991112 C 597.595852 82.136945 597.085435 78.96507 597.085435 75.480695 L 597.085435 19.10569 C 597.085435 17.678607 597.408352 16.63694 598.059394 15.991107 C 598.705227 15.340065 599.752102 15.017148 601.200019 15.017148 L 619.07502 15.017148 C 620.502104 15.017148 621.538562 15.340065 622.189604 15.991107 C 622.835437 16.63694 623.158354 17.678607 623.158354 19.10569 L 623.158354 71.032778 C 623.158354 72.553611 623.726063 73.834861 624.856271 74.87132 C 626.007313 75.892153 628.554188 76.40257 632.502105 76.40257 C 636.522939 76.40257 639.101064 75.892153 640.231272 74.87132 C 641.377106 73.834861 641.955231 72.553611 641.955231 71.032778 L 641.955231 19.10569 C 641.955231 17.678607 642.278147 16.63694 642.923981 15.991107 C 643.575022 15.340065 644.611481 15.017148 646.038564 15.017148 L 663.361482 15.017148 C 664.804191 15.017148 665.845858 15.340065 666.470858 15.991107 C 667.121899 16.63694 667.444816 17.678607 667.444816 19.10569 Z M 745.236489 97.00153 L 692.387526 97.00153 C 690.939609 97.00153 689.892734 96.673405 689.246901 96.027571 C 688.616693 95.37653 688.298984 94.340071 688.298984 92.912988 L 688.298984 19.10569 C 688.298984 17.678607 688.616693 16.63694 689.246901 15.991107 C 689.892734 15.340065 690.939609 15.017148 692.387526 15.017148 L 745.236489 15.017148 C 746.663572 15.017148 747.700031 15.340065 748.351072 15.991107 C 748.996906 16.63694 749.319822 17.678607 749.319822 19.10569 L 749.319822 32.449441 C 749.319822 33.876525 748.996906 34.912983 748.351072 35.558817 C 747.700031 36.209858 746.663572 36.532775 745.236489 36.532775 L 713.793778 36.532775 L 713.793778 45.293192 L 736.007321 45.293192 C 737.45003 45.293192 738.491697 45.616109 739.121905 46.261943 C 739.767738 46.912984 740.090655 47.959859 740.090655 49.407776 L 740.090655 61.58486 C 740.090655 63.027569 739.767738 64.074444 739.121905 64.725486 C 738.491697 65.371319 737.45003 65.699444 736.007321 65.699444 L 713.793778 65.699444 L 713.793778 75.480695 L 745.236489 75.480695 C 746.663572 75.480695 747.700031 75.80882 748.351072 76.454653 C 748.996906 77.084862 749.319822 78.12132 749.319822 79.569237 L 749.319822 92.912988 C 749.319822 94.340071 748.996906 95.37653 748.351072 96.027571 C 747.700031 96.673405 746.663572 97.00153 745.236489 97.00153 Z M 789.616701 97.00153 L 772.543783 97.00153 C 771.101074 97.00153 770.054199 96.673405 769.403157 96.027571 C 768.772949 95.37653 768.460449 94.340071 768.460449 92.912988 L 768.460449 19.10569 C 768.460449 17.678607 768.772949 16.63694 769.403157 15.991107 C 770.054199 15.340065 771.101074 15.017148 772.543783 15.017148 L 784.387534 15.017148 C 785.83545 15.017148 787.064617 15.246315 788.08545 15.709857 C 789.106284 16.157774 790.116701 16.944232 791.116701 18.07444 L 813.189619 43.371317 L 813.189619 19.10569 C 813.189619 17.678607 813.512536 16.63694 814.163578 15.991107 C 814.809411 15.340065 815.856286 15.017148 817.304203 15.017148 L 834.371912 15.017148 C 835.819829 15.017148 836.866704 15.340065 837.512538 15.991107 C 838.163579 16.63694 838.486496 17.678607 838.486496 19.10569 L 838.486496 92.912988 C 838.486496 94.340071 838.163579 95.37653 837.512538 96.027571 C 836.866704 96.673405 835.819829 97.00153 834.371912 97.00153 L 817.304203 97.00153 C 815.856286 97.00153 814.809411 96.673405 814.163578 96.027571 C 813.512536 95.37653 813.189619 94.340071 813.189619 92.912988 L 813.189619 78.90257 L 793.731284 55.329652 L 793.731284 92.912988 C 793.731284 94.340071 793.403159 95.37653 792.757326 96.027571 C 792.106284 96.673405 791.059409 97.00153 789.616701 97.00153 Z M 929.335462 75.480695 C 929.335462 78.96507 928.825045 82.136945 927.804211 84.991112 C 926.783378 87.824446 924.960461 90.251529 922.330253 92.272363 C 919.715669 94.293196 916.111502 95.871321 911.512544 97.00153 C 906.918793 98.131738 901.090668 98.694238 894.028167 98.694238 C 886.965667 98.694238 881.116708 98.131738 876.486499 97.00153 C 871.871915 95.871321 868.246915 94.293196 865.616707 92.272363 C 863.002123 90.251529 861.184415 87.824446 860.168789 84.991112 C 859.147956 82.136945 858.637539 78.96507 858.637539 75.480695 L 858.637539 36.647358 C 858.637539 33.162983 859.147956 30.001525 860.168789 27.168191 C 861.184415 24.314024 863.002123 21.855691 865.616707 19.798399 C 868.246915 17.741107 871.871915 16.147357 876.486499 15.017148 C 881.116708 13.866107 886.965667 13.29319 894.028167 13.29319 C 901.090668 13.29319 906.918793 13.866107 911.512544 15.017148 C 916.111502 16.147357 919.715669 17.741107 922.330253 19.798399 C 924.960461 21.855691 926.783378 24.314024 927.804211 27.168191 C 928.825045 30.001525 929.335462 33.162983 929.335462 36.647358 Z M 884.465666 71.366111 C 884.465666 72.886945 885.028166 74.168195 886.158375 75.204653 C 887.309417 76.225487 889.929208 76.735903 894.028167 76.735903 C 898.142751 76.735903 900.762543 76.225487 901.892751 75.204653 C 903.02296 74.168195 903.590668 72.886945 903.590668 71.366111 L 903.590668 40.761942 C 903.590668 39.314025 903.02296 38.07965 901.892751 37.064025 C 900.762543 36.022358 898.142751 35.506733 894.028167 35.506733 C 889.929208 35.506733 887.309417 36.022358 886.158375 37.064025 C 885.028166 38.07965 884.465666 39.314025 884.465666 40.761942 Z M 970.543798 97.00153 L 953.585463 97.00153 C 952.137547 97.00153 951.090672 96.673405 950.43963 96.027571 C 949.809422 95.37653 949.496922 94.340071 949.496922 92.912988 L 949.496922 19.10569 C 949.496922 17.678607 949.809422 16.63694 950.43963 15.991107 C 951.090672 15.340065 952.137547 15.017148 953.585463 15.017148 L 971.929215 15.017148 C 973.137548 15.017148 974.137548 15.287982 974.934424 15.82444 C 975.731299 16.340065 976.470882 17.215065 977.158382 18.433815 L 987.413591 36.980692 C 987.788591 37.662984 988.101091 38.162984 988.361508 38.480692 C 988.63755 38.777567 989.002133 38.9234 989.444841 38.9234 L 990.476091 38.9234 C 990.939633 38.9234 991.299008 38.777567 991.559425 38.480692 C 991.819841 38.162984 992.142758 37.662984 992.533383 36.980692 L 1002.647967 18.433815 C 1003.335467 17.215065 1004.075051 16.340065 1004.877134 15.82444 C 1005.674009 15.287982 1006.679218 15.017148 1007.903176 15.017148 L 1026.335469 15.017148 C 1027.783386 15.017148 1028.830261 15.340065 1029.476094 15.991107 C 1030.127136 16.63694 1030.450053 17.678607 1030.450053 19.10569 L 1030.450053 92.912988 C 1030.450053 94.340071 1030.127136 95.37653 1029.476094 96.027571 C 1028.830261 96.673405 1027.783386 97.00153 1026.335469 97.00153 L 1008.819843 97.00153 C 1007.377134 97.00153 1006.330259 96.673405 1005.679218 96.027571 C 1005.033384 95.37653 1004.705259 94.340071 1004.705259 92.912988 L 1004.705259 52.824443 L 998.007342 65.225486 C 997.319842 66.522361 996.496925 67.459861 995.533383 68.032778 C 994.590675 68.590069 993.392758 68.866111 991.95005 68.866111 L 987.413591 68.866111 C 985.970883 68.866111 984.767758 68.590069 983.804216 68.032778 C 982.856299 67.459861 982.049007 66.522361 981.382341 65.225486 L 974.653173 52.824443 L 974.653173 92.912988 C 974.653173 94.340071 974.330257 95.37653 973.684423 96.027571 C 973.033382 96.673405 971.986507 97.00153 970.543798 97.00153 Z M 1054.137555 97.00153 C 1052.689638 97.00153 1051.642763 96.673405 1050.996929 96.027571 C 1050.345888 95.37653 1050.022971 94.340071 1050.022971 92.912988 L 1050.022971 79.345279 C 1050.022971 77.90257 1050.345888 76.860903 1050.996929 76.230695 C 1051.642763 75.584862 1052.689638 75.261945 1054.137555 75.261945 L 1065.397972 75.261945 L 1065.397972 36.980692 L 1054.137555 36.980692 C 1052.689638 36.980692 1051.642763 36.662983 1050.996929 36.032775 C 1050.345888 35.386942 1050.022971 34.340067 1050.022971 32.89215 L 1050.022971 19.10569 C 1050.022971 17.678607 1050.345888 16.63694 1050.996929 15.991107 C 1051.642763 15.340065 1052.689638 15.017148 1054.137555 15.017148 L 1102.621934 15.017148 C 1104.064642 15.017148 1105.111517 15.340065 1105.762559 15.991107 C 1106.408392 16.63694 1106.736517 17.678607 1106.736517 19.10569 L 1106.736517 32.89215 C 1106.736517 34.340067 1106.408392 35.386942 1105.762559 36.032775 C 1105.111517 36.662983 1104.064642 36.980692 1102.621934 36.980692 L 1091.585474 36.980692 L 1091.585474 75.261945 L 1102.621934 75.261945 C 1104.064642 75.261945 1105.111517 75.584862 1105.762559 76.230695 C 1106.408392 76.860903 1106.736517 77.90257 1106.736517 79.345279 L 1106.736517 92.912988 C 1106.736517 94.340071 1106.408392 95.37653 1105.762559 96.027571 C 1105.111517 96.673405 1104.064642 97.00153 1102.621934 97.00153 Z M 1180.981315 97.00153 L 1153.179229 97.00153 C 1143.689645 97.00153 1136.647978 95.100488 1132.049019 91.298404 C 1127.470894 87.501529 1125.184435 81.65257 1125.184435 73.756736 L 1125.184435 38.371317 C 1125.184435 30.475483 1127.470894 24.605691 1132.049019 20.772357 C 1136.647978 16.933815 1143.689645 15.017148 1153.179229 15.017148 L 1180.981315 15.017148 C 1182.408398 15.017148 1183.444857 15.340065 1184.09069 15.991107 C 1184.741732 16.63694 1185.064648 17.678607 1185.064648 19.10569 L 1185.064648 32.89215 C 1185.064648 34.340067 1184.741732 35.386942 1184.09069 36.032775 C 1183.444857 36.662983 1182.408398 36.980692 1180.981315 36.980692 L 1158.069855 36.980692 C 1155.720896 36.980692 1153.965688 37.459859 1152.819854 38.4234 C 1151.689646 39.371317 1151.121937 40.787984 1151.121937 42.678609 L 1151.121937 69.782778 C 1151.121937 71.673403 1151.689646 73.064028 1152.819854 73.954653 C 1153.965688 74.824445 1155.720896 75.261945 1158.069855 75.261945 L 1180.981315 75.261945 C 1182.408398 75.261945 1183.444857 75.584862 1184.09069 76.230695 C 1184.741732 76.860903 1185.064648 77.90257 1185.064648 79.345279 L 1185.064648 92.912988 C 1185.064648 94.340071 1184.741732 95.37653 1184.09069 96.027571 C 1183.444857 96.673405 1182.408398 97.00153 1180.981315 97.00153 Z M 1241.663611 97.00153 L 1205.663608 97.00153 C 1204.236525 97.00153 1203.194858 96.673405 1202.549025 96.027571 C 1201.897983 95.37653 1201.575066 94.340071 1201.575066 92.912988 L 1201.575066 79.569237 C 1201.575066 78.12132 1201.897983 77.084862 1202.549025 76.454653 C 1203.194858 75.80882 1204.236525 75.480695 1205.663608 75.480695 L 1236.299027 75.480695 C 1237.278194 75.480695 1238.022986 75.157778 1238.522986 74.511945 C 1239.022986 73.860903 1239.272986 73.084861 1239.272986 72.173403 C 1239.272986 70.876528 1239.022986 69.933819 1238.522986 69.340069 C 1238.022986 68.725486 1237.278194 68.381736 1236.299027 68.308819 L 1219.231318 65.918194 C 1213.908401 65.157777 1209.637567 63.418194 1206.413608 60.694235 C 1203.18965 57.949443 1201.575066 53.392151 1201.575066 47.017151 L 1201.575066 35.058817 C 1201.575066 28.6109 1203.6584 23.662982 1207.830275 20.215066 C 1212.00215 16.751524 1217.772984 15.017148 1225.147985 15.017148 L 1257.038612 15.017148 C 1258.465696 15.017148 1259.502154 15.340065 1260.153196 15.991107 C 1260.799029 16.63694 1261.121946 17.678607 1261.121946 19.10569 L 1261.121946 32.668191 C 1261.121946 34.116108 1260.799029 35.162983 1260.153196 35.814025 C 1259.502154 36.444233 1258.465696 36.756733 1257.038612 36.756733 L 1230.486527 36.756733 C 1229.50736 36.756733 1228.746943 37.07965 1228.210485 37.730692 C 1227.689652 38.376525 1227.429235 39.194234 1227.429235 40.178609 C 1227.429235 41.157775 1227.689652 41.991109 1228.210485 42.678609 C 1228.746943 43.366109 1229.50736 43.746317 1230.486527 43.819234 L 1247.476112 46.095276 C 1252.772987 46.855693 1257.054237 48.610901 1260.319863 51.350485 C 1263.595905 54.074443 1265.23653 58.626527 1265.23653 65.001527 L 1265.23653 76.954653 C 1265.23653 83.407779 1263.127155 88.360904 1258.897988 91.829654 C 1254.694862 95.277571 1248.944862 97.00153 1241.663611 97.00153 Z M 1241.663611 97.00153 " stroke="#000000" stroke-width="16.227188" stroke-opacity="1" stroke-miterlimit="4"/><g fill="#ffffff" fill-opacity="1"><g transform="translate(197.521885, 246.748853)"><g><path d="M 34.421875 0 L 7.4375 0 C 6.351562 0 5.566406 -0.238281 5.078125 -0.71875 C 4.597656 -1.207031 4.359375 -1.992188 4.359375 -3.078125 L 4.359375 -13.0625 C 4.359375 -14.144531 4.597656 -14.925781 5.078125 -15.40625 C 5.566406 -15.894531 6.351562 -16.140625 7.4375 -16.140625 L 30.40625 -16.140625 C 31.144531 -16.140625 31.695312 -16.378906 32.0625 -16.859375 C 32.4375 -17.347656 32.625 -17.9375 32.625 -18.625 C 32.625 -19.59375 32.4375 -20.300781 32.0625 -20.75 C 31.695312 -21.207031 31.144531 -21.460938 30.40625 -21.515625 L 17.59375 -23.3125 C 13.601562 -23.882812 10.398438 -25.191406 7.984375 -27.234375 C 5.566406 -29.285156 4.359375 -32.707031 4.359375 -37.5 L 4.359375 -46.46875 C 4.359375 -51.300781 5.921875 -55.015625 9.046875 -57.609375 C 12.179688 -60.203125 16.507812 -61.5 22.03125 -61.5 L 45.953125 -61.5 C 47.035156 -61.5 47.816406 -61.253906 48.296875 -60.765625 C 48.773438 -60.285156 49.015625 -59.503906 49.015625 -58.421875 L 49.015625 -48.25 C 49.015625 -47.164062 48.773438 -46.382812 48.296875 -45.90625 C 47.816406 -45.425781 47.035156 -45.1875 45.953125 -45.1875 L 26.046875 -45.1875 C 25.304688 -45.1875 24.738281 -44.941406 24.34375 -44.453125 C 23.945312 -43.972656 23.75 -43.363281 23.75 -42.625 C 23.75 -41.875 23.945312 -41.242188 24.34375 -40.734375 C 24.738281 -40.222656 25.304688 -39.941406 26.046875 -39.890625 L 38.78125 -38.171875 C 42.757812 -37.609375 45.972656 -36.300781 48.421875 -34.25 C 50.867188 -32.195312 52.09375 -28.78125 52.09375 -24 L 52.09375 -15.03125 C 52.09375 -10.1875 50.515625 -6.46875 47.359375 -3.875 C 44.203125 -1.289062 39.890625 0 34.421875 0 Z M 34.421875 0 "/></g></g></g><g fill="#ffffff" fill-opacity="1"><g transform="translate(257.298657, 246.748853)"><g><path d="M 34.9375 0 L 21.09375 0 C 20.007812 0 19.222656 -0.238281 18.734375 -0.71875 C 18.253906 -1.207031 18.015625 -1.992188 18.015625 -3.078125 L 18.015625 -45.015625 L 5.46875 -45.015625 C 4.382812 -45.015625 3.597656 -45.253906 3.109375 -45.734375 C 2.628906 -46.222656 2.390625 -47.003906 2.390625 -48.078125 L 2.390625 -58.421875 C 2.390625 -59.503906 2.628906 -60.285156 3.109375 -60.765625 C 3.597656 -61.253906 4.382812 -61.5 5.46875 -61.5 L 50.5625 -61.5 C 51.644531 -61.5 52.425781 -61.253906 52.90625 -60.765625 C 53.394531 -60.285156 53.640625 -59.503906 53.640625 -58.421875 L 53.640625 -48.078125 C 53.640625 -47.003906 53.394531 -46.222656 52.90625 -45.734375 C 52.425781 -45.253906 51.644531 -45.015625 50.5625 -45.015625 L 38 -45.015625 L 38 -3.078125 C 38 -1.992188 37.753906 -1.207031 37.265625 -0.71875 C 36.785156 -0.238281 36.007812 0 34.9375 0 Z M 34.9375 0 "/></g></g></g><g fill="#ffffff" fill-opacity="1"><g transform="translate(317.587793, 246.748853)"><g><path d="M 28.1875 -43.5625 L 24.171875 -30.578125 L 37.578125 -30.578125 L 33.5625 -43.5625 C 33.332031 -44.070312 33.085938 -44.441406 32.828125 -44.671875 C 32.578125 -44.898438 32.28125 -45.015625 31.9375 -45.015625 L 29.8125 -45.015625 C 29.46875 -45.015625 29.164062 -44.898438 28.90625 -44.671875 C 28.65625 -44.441406 28.414062 -44.070312 28.1875 -43.5625 Z M 23.3125 -3.078125 C 23.3125 -1.992188 23.066406 -1.207031 22.578125 -0.71875 C 22.097656 -0.238281 21.316406 0 20.234375 0 L 7.6875 0 C 6.601562 0 5.816406 -0.238281 5.328125 -0.71875 C 4.847656 -1.207031 4.609375 -1.992188 4.609375 -3.078125 L 4.609375 -25.625 C 4.609375 -27.332031 4.878906 -29.296875 5.421875 -31.515625 C 5.960938 -33.734375 6.800781 -36.320312 7.9375 -39.28125 L 15.375 -58.671875 C 15.71875 -59.640625 16.242188 -60.351562 16.953125 -60.8125 C 17.660156 -61.269531 18.585938 -61.5 19.734375 -61.5 L 42.703125 -61.5 C 43.785156 -61.5 44.679688 -61.269531 45.390625 -60.8125 C 46.109375 -60.351562 46.632812 -59.640625 46.96875 -58.671875 L 54.40625 -39.28125 C 55.539062 -36.320312 56.378906 -33.734375 56.921875 -31.515625 C 57.460938 -29.296875 57.734375 -27.332031 57.734375 -25.625 L 57.734375 -3.078125 C 57.734375 -1.992188 57.488281 -1.207031 57 -0.71875 C 56.519531 -0.238281 55.738281 0 54.65625 0 L 41.765625 0 C 40.628906 0 39.789062 -0.238281 39.25 -0.71875 C 38.707031 -1.207031 38.4375 -1.992188 38.4375 -3.078125 L 38.4375 -15.03125 L 23.3125 -15.03125 Z M 23.3125 -3.078125 "/></g></g></g><g fill="#ffffff" fill-opacity="1"><g transform="translate(384.196133, 246.748853)"><g><path d="M 34.9375 0 L 21.09375 0 C 20.007812 0 19.222656 -0.238281 18.734375 -0.71875 C 18.253906 -1.207031 18.015625 -1.992188 18.015625 -3.078125 L 18.015625 -45.015625 L 5.46875 -45.015625 C 4.382812 -45.015625 3.597656 -45.253906 3.109375 -45.734375 C 2.628906 -46.222656 2.390625 -47.003906 2.390625 -48.078125 L 2.390625 -58.421875 C 2.390625 -59.503906 2.628906 -60.285156 3.109375 -60.765625 C 3.597656 -61.253906 4.382812 -61.5 5.46875 -61.5 L 50.5625 -61.5 C 51.644531 -61.5 52.425781 -61.253906 52.90625 -60.765625 C 53.394531 -60.285156 53.640625 -59.503906 53.640625 -58.421875 L 53.640625 -48.078125 C 53.640625 -47.003906 53.394531 -46.222656 52.90625 -45.734375 C 52.425781 -45.253906 51.644531 -45.015625 50.5625 -45.015625 L 38 -45.015625 L 38 -3.078125 C 38 -1.992188 37.753906 -1.207031 37.265625 -0.71875 C 36.785156 -0.238281 36.007812 0 34.9375 0 Z M 34.9375 0 "/></g></g></g><g fill="#ffffff" fill-opacity="1"><g transform="translate(444.485275, 246.748853)"><g><path d="M 58.25 -16.140625 C 58.25 -13.523438 57.863281 -11.148438 57.09375 -9.015625 C 56.320312 -6.878906 54.953125 -5.054688 52.984375 -3.546875 C 51.023438 -2.035156 48.335938 -0.851562 44.921875 0 C 41.503906 0.851562 37.148438 1.28125 31.859375 1.28125 C 26.554688 1.28125 22.195312 0.851562 18.78125 0 C 15.375 -0.851562 12.6875 -2.035156 10.71875 -3.546875 C 8.75 -5.054688 7.378906 -6.878906 6.609375 -9.015625 C 5.847656 -11.148438 5.46875 -13.523438 5.46875 -16.140625 L 5.46875 -58.421875 C 5.46875 -59.503906 5.707031 -60.285156 6.1875 -60.765625 C 6.675781 -61.253906 7.460938 -61.5 8.546875 -61.5 L 21.953125 -61.5 C 23.035156 -61.5 23.816406 -61.253906 24.296875 -60.765625 C 24.785156 -60.285156 25.03125 -59.503906 25.03125 -58.421875 L 25.03125 -19.46875 C 25.03125 -18.332031 25.457031 -17.378906 26.3125 -16.609375 C 27.164062 -15.835938 29.070312 -15.453125 32.03125 -15.453125 C 35.039062 -15.453125 36.972656 -15.835938 37.828125 -16.609375 C 38.679688 -17.378906 39.109375 -18.332031 39.109375 -19.46875 L 39.109375 -58.421875 C 39.109375 -59.503906 39.347656 -60.285156 39.828125 -60.765625 C 40.316406 -61.253906 41.101562 -61.5 42.1875 -61.5 L 55.171875 -61.5 C 56.253906 -61.5 57.035156 -61.253906 57.515625 -60.765625 C 58.003906 -60.285156 58.25 -59.503906 58.25 -58.421875 Z M 58.25 -16.140625 "/></g></g></g><g fill="#ffffff" fill-opacity="1"><g transform="translate(512.459926, 246.748853)"><g><path d="M 48.59375 0 L 8.96875 0 C 7.882812 0 7.097656 -0.238281 6.609375 -0.71875 C 6.128906 -1.207031 5.890625 -1.992188 5.890625 -3.078125 L 5.890625 -58.421875 C 5.890625 -59.503906 6.128906 -60.285156 6.609375 -60.765625 C 7.097656 -61.253906 7.882812 -61.5 8.96875 -61.5 L 48.59375 -61.5 C 49.675781 -61.5 50.457031 -61.253906 50.9375 -60.765625 C 51.425781 -60.285156 51.671875 -59.503906 51.671875 -58.421875 L 51.671875 -48.421875 C 51.671875 -47.335938 51.425781 -46.550781 50.9375 -46.0625 C 50.457031 -45.582031 49.675781 -45.34375 48.59375 -45.34375 L 25.03125 -45.34375 L 25.03125 -38.78125 L 41.671875 -38.78125 C 42.753906 -38.78125 43.535156 -38.535156 44.015625 -38.046875 C 44.503906 -37.566406 44.75 -36.785156 44.75 -35.703125 L 44.75 -26.5625 C 44.75 -25.476562 44.503906 -24.691406 44.015625 -24.203125 C 43.535156 -23.722656 42.753906 -23.484375 41.671875 -23.484375 L 25.03125 -23.484375 L 25.03125 -16.140625 L 48.59375 -16.140625 C 49.675781 -16.140625 50.457031 -15.894531 50.9375 -15.40625 C 51.425781 -14.925781 51.671875 -14.144531 51.671875 -13.0625 L 51.671875 -3.078125 C 51.671875 -1.992188 51.425781 -1.207031 50.9375 -0.71875 C 50.457031 -0.238281 49.675781 0 48.59375 0 Z M 48.59375 0 "/></g></g></g><g fill="#ffffff" fill-opacity="1"><g transform="translate(572.578275, 246.748853)"><g><path d="M 21.78125 0 L 8.96875 0 C 7.882812 0 7.097656 -0.238281 6.609375 -0.71875 C 6.128906 -1.207031 5.890625 -1.992188 5.890625 -3.078125 L 5.890625 -58.421875 C 5.890625 -59.503906 6.128906 -60.285156 6.609375 -60.765625 C 7.097656 -61.253906 7.882812 -61.5 8.96875 -61.5 L 17.84375 -61.5 C 18.925781 -61.5 19.851562 -61.328125 20.625 -60.984375 C 21.394531 -60.640625 22.148438 -60.039062 22.890625 -59.1875 L 39.453125 -40.21875 L 39.453125 -58.421875 C 39.453125 -59.503906 39.691406 -60.285156 40.171875 -60.765625 C 40.660156 -61.253906 41.445312 -61.5 42.53125 -61.5 L 55.34375 -61.5 C 56.425781 -61.5 57.207031 -61.253906 57.6875 -60.765625 C 58.175781 -60.285156 58.421875 -59.503906 58.421875 -58.421875 L 58.421875 -3.078125 C 58.421875 -1.992188 58.175781 -1.207031 57.6875 -0.71875 C 57.207031 -0.238281 56.425781 0 55.34375 0 L 42.53125 0 C 41.445312 0 40.660156 -0.238281 40.171875 -0.71875 C 39.691406 -1.207031 39.453125 -1.992188 39.453125 -3.078125 L 39.453125 -13.578125 L 24.859375 -31.265625 L 24.859375 -3.078125 C 24.859375 -1.992188 24.613281 -1.207031 24.125 -0.71875 C 23.644531 -0.238281 22.863281 0 21.78125 0 Z M 21.78125 0 "/></g></g></g><g fill="#ffffff" fill-opacity="1"><g transform="translate(641.150696, 246.748853)"><g><path d="M 57.984375 -16.140625 C 57.984375 -13.523438 57.597656 -11.148438 56.828125 -9.015625 C 56.066406 -6.878906 54.703125 -5.054688 52.734375 -3.546875 C 50.773438 -2.035156 48.070312 -0.851562 44.625 0 C 41.175781 0.851562 36.804688 1.28125 31.515625 1.28125 C 26.222656 1.28125 21.835938 0.851562 18.359375 0 C 14.890625 -0.851562 12.171875 -2.035156 10.203125 -3.546875 C 8.242188 -5.054688 6.878906 -6.878906 6.109375 -9.015625 C 5.335938 -11.148438 4.953125 -13.523438 4.953125 -16.140625 L 4.953125 -45.265625 C 4.953125 -47.878906 5.335938 -50.253906 6.109375 -52.390625 C 6.878906 -54.523438 8.242188 -56.363281 10.203125 -57.90625 C 12.171875 -59.445312 14.890625 -60.644531 18.359375 -61.5 C 21.835938 -62.351562 26.222656 -62.78125 31.515625 -62.78125 C 36.804688 -62.78125 41.175781 -62.351562 44.625 -61.5 C 48.070312 -60.644531 50.773438 -59.445312 52.734375 -57.90625 C 54.703125 -56.363281 56.066406 -54.523438 56.828125 -52.390625 C 57.597656 -50.253906 57.984375 -47.878906 57.984375 -45.265625 Z M 24.34375 -19.21875 C 24.34375 -18.082031 24.769531 -17.128906 25.625 -16.359375 C 26.476562 -15.585938 28.441406 -15.203125 31.515625 -15.203125 C 34.585938 -15.203125 36.550781 -15.585938 37.40625 -16.359375 C 38.257812 -17.128906 38.6875 -18.082031 38.6875 -19.21875 L 38.6875 -42.1875 C 38.6875 -43.269531 38.257812 -44.195312 37.40625 -44.96875 C 36.550781 -45.738281 34.585938 -46.125 31.515625 -46.125 C 28.441406 -46.125 26.476562 -45.738281 25.625 -44.96875 C 24.769531 -44.195312 24.34375 -43.269531 24.34375 -42.1875 Z M 24.34375 -19.21875 "/></g></g></g><g fill="#ffffff" fill-opacity="1"><g transform="translate(708.356806, 246.748853)"><g><path d="M 21.6875 0 L 8.96875 0 C 7.882812 0 7.097656 -0.238281 6.609375 -0.71875 C 6.128906 -1.207031 5.890625 -1.992188 5.890625 -3.078125 L 5.890625 -58.421875 C 5.890625 -59.503906 6.128906 -60.285156 6.609375 -60.765625 C 7.097656 -61.253906 7.882812 -61.5 8.96875 -61.5 L 22.71875 -61.5 C 23.625 -61.5 24.375 -61.296875 24.96875 -60.890625 C 25.570312 -60.492188 26.128906 -59.84375 26.640625 -58.9375 L 34.328125 -45.015625 C 34.617188 -44.492188 34.863281 -44.117188 35.0625 -43.890625 C 35.257812 -43.671875 35.53125 -43.5625 35.875 -43.5625 L 36.640625 -43.5625 C 36.984375 -43.5625 37.253906 -43.671875 37.453125 -43.890625 C 37.648438 -44.117188 37.890625 -44.492188 38.171875 -45.015625 L 45.78125 -58.9375 C 46.289062 -59.84375 46.84375 -60.492188 47.4375 -60.890625 C 48.039062 -61.296875 48.796875 -61.5 49.703125 -61.5 L 63.546875 -61.5 C 64.628906 -61.5 65.410156 -61.253906 65.890625 -60.765625 C 66.367188 -60.285156 66.609375 -59.503906 66.609375 -58.421875 L 66.609375 -3.078125 C 66.609375 -1.992188 66.367188 -1.207031 65.890625 -0.71875 C 65.410156 -0.238281 64.628906 0 63.546875 0 L 50.390625 0 C 49.304688 0 48.519531 -0.238281 48.03125 -0.71875 C 47.550781 -1.207031 47.3125 -1.992188 47.3125 -3.078125 L 47.3125 -33.140625 L 42.28125 -23.828125 C 41.757812 -22.859375 41.144531 -22.160156 40.4375 -21.734375 C 39.726562 -21.304688 38.832031 -21.09375 37.75 -21.09375 L 34.328125 -21.09375 C 33.242188 -21.09375 32.347656 -21.304688 31.640625 -21.734375 C 30.929688 -22.160156 30.320312 -22.859375 29.8125 -23.828125 L 24.765625 -33.140625 L 24.765625 -3.078125 C 24.765625 -1.992188 24.519531 -1.207031 24.03125 -0.71875 C 23.550781 -0.238281 22.769531 0 21.6875 0 Z M 21.6875 0 "/></g></g></g><g fill="#ffffff" fill-opacity="1"><g transform="translate(785.12711, 246.748853)"><g><path d="M 7.59375 0 C 6.519531 0 5.738281 -0.238281 5.25 -0.71875 C 4.769531 -1.207031 4.53125 -1.992188 4.53125 -3.078125 L 4.53125 -13.234375 C 4.53125 -14.316406 4.769531 -15.097656 5.25 -15.578125 C 5.738281 -16.066406 6.519531 -16.3125 7.59375 -16.3125 L 16.0625 -16.3125 L 16.0625 -45.015625 L 7.59375 -45.015625 C 6.519531 -45.015625 5.738281 -45.253906 5.25 -45.734375 C 4.769531 -46.222656 4.53125 -47.003906 4.53125 -48.078125 L 4.53125 -58.421875 C 4.53125 -59.503906 4.769531 -60.285156 5.25 -60.765625 C 5.738281 -61.253906 6.519531 -61.5 7.59375 -61.5 L 43.984375 -61.5 C 45.066406 -61.5 45.847656 -61.253906 46.328125 -60.765625 C 46.816406 -60.285156 47.0625 -59.503906 47.0625 -58.421875 L 47.0625 -48.078125 C 47.0625 -47.003906 46.816406 -46.222656 46.328125 -45.734375 C 45.847656 -45.253906 45.066406 -45.015625 43.984375 -45.015625 L 35.703125 -45.015625 L 35.703125 -16.3125 L 43.984375 -16.3125 C 45.066406 -16.3125 45.847656 -16.066406 46.328125 -15.578125 C 46.816406 -15.097656 47.0625 -14.316406 47.0625 -13.234375 L 47.0625 -3.078125 C 47.0625 -1.992188 46.816406 -1.207031 46.328125 -0.71875 C 45.847656 -0.238281 45.066406 0 43.984375 0 Z M 7.59375 0 "/></g></g></g><g fill="#ffffff" fill-opacity="1"><g transform="translate(841.061111, 246.748853)"><g><path d="M 46.796875 0 L 25.96875 0 C 18.84375 0 13.554688 -1.421875 10.109375 -4.265625 C 6.671875 -7.117188 4.953125 -11.503906 4.953125 -17.421875 L 4.953125 -43.984375 C 4.953125 -49.898438 6.671875 -54.296875 10.109375 -57.171875 C 13.554688 -60.054688 18.84375 -61.5 25.96875 -61.5 L 46.796875 -61.5 C 47.878906 -61.5 48.660156 -61.253906 49.140625 -60.765625 C 49.628906 -60.285156 49.875 -59.503906 49.875 -58.421875 L 49.875 -48.078125 C 49.875 -47.003906 49.628906 -46.222656 49.140625 -45.734375 C 48.660156 -45.253906 47.878906 -45.015625 46.796875 -45.015625 L 29.640625 -45.015625 C 27.867188 -45.015625 26.554688 -44.65625 25.703125 -43.9375 C 24.847656 -43.226562 24.421875 -42.160156 24.421875 -40.734375 L 24.421875 -20.40625 C 24.421875 -18.988281 24.847656 -17.953125 25.703125 -17.296875 C 26.554688 -16.640625 27.867188 -16.3125 29.640625 -16.3125 L 46.796875 -16.3125 C 47.878906 -16.3125 48.660156 -16.066406 49.140625 -15.578125 C 49.628906 -15.097656 49.875 -14.316406 49.875 -13.234375 L 49.875 -3.078125 C 49.875 -1.992188 49.628906 -1.207031 49.140625 -0.71875 C 48.660156 -0.238281 47.878906 0 46.796875 0 Z M 46.796875 0 "/></g></g></g><g fill="#ffffff" fill-opacity="1"><g transform="translate(898.959193, 246.748853)"><g><path d="M 34.421875 0 L 7.4375 0 C 6.351562 0 5.566406 -0.238281 5.078125 -0.71875 C 4.597656 -1.207031 4.359375 -1.992188 4.359375 -3.078125 L 4.359375 -13.0625 C 4.359375 -14.144531 4.597656 -14.925781 5.078125 -15.40625 C 5.566406 -15.894531 6.351562 -16.140625 7.4375 -16.140625 L 30.40625 -16.140625 C 31.144531 -16.140625 31.695312 -16.378906 32.0625 -16.859375 C 32.4375 -17.347656 32.625 -17.9375 32.625 -18.625 C 32.625 -19.59375 32.4375 -20.300781 32.0625 -20.75 C 31.695312 -21.207031 31.144531 -21.460938 30.40625 -21.515625 L 17.59375 -23.3125 C 13.601562 -23.882812 10.398438 -25.191406 7.984375 -27.234375 C 5.566406 -29.285156 4.359375 -32.707031 4.359375 -37.5 L 4.359375 -46.46875 C 4.359375 -51.300781 5.921875 -55.015625 9.046875 -57.609375 C 12.179688 -60.203125 16.507812 -61.5 22.03125 -61.5 L 45.953125 -61.5 C 47.035156 -61.5 47.816406 -61.253906 48.296875 -60.765625 C 48.773438 -60.285156 49.015625 -59.503906 49.015625 -58.421875 L 49.015625 -48.25 C 49.015625 -47.164062 48.773438 -46.382812 48.296875 -45.90625 C 47.816406 -45.425781 47.035156 -45.1875 45.953125 -45.1875 L 26.046875 -45.1875 C 25.304688 -45.1875 24.738281 -44.941406 24.34375 -44.453125 C 23.945312 -43.972656 23.75 -43.363281 23.75 -42.625 C 23.75 -41.875 23.945312 -41.242188 24.34375 -40.734375 C 24.738281 -40.222656 25.304688 -39.941406 26.046875 -39.890625 L 38.78125 -38.171875 C 42.757812 -37.609375 45.972656 -36.300781 48.421875 -34.25 C 50.867188 -32.195312 52.09375 -28.78125 52.09375 -24 L 52.09375 -15.03125 C 52.09375 -10.1875 50.515625 -6.46875 47.359375 -3.875 C 44.203125 -1.289062 39.890625 0 34.421875 0 Z M 34.421875 0 "/></g></g></g></svg>